<svg width="80" height="96" viewBox="0 0 80 96" fill="none" xmlns="http://www.w3.org/2000/svg">
<path fill-rule="evenodd" clip-rule="evenodd" d="M30.798 17.908H47.6955C47.3471 30.6247 52.1203 56.0581 74 56.0581V78.1818C62.9092 77.8334 40.7275 71.7363 40.7275 50.1353H38.1144C37.2434 59.4841 29.4044 78.1818 5.01611 78.1818V56.0581C13.6101 56.3485 30.798 49.1249 30.798 17.908ZM63.1998 17.908H65.4644C65.6386 20.7533 67.5897 26.4439 74.0003 26.4439V28.8827C71.155 28.9408 65.4644 30.6944 65.4644 37.2444H63.1998C63.3159 34.4572 61.8062 28.8827 54.8381 28.8827V26.4439C57.6253 26.502 63.1998 24.8761 63.1998 17.908Z" fill="black"/>
</svg>
