<svg width="151" height="28" viewBox="0 0 151 28" fill="none" xmlns="http://www.w3.org/2000/svg">
<path d="M0.59498 27.5L8.74598 0.199998H14.05L22.24 27.5H17.521L16.156 22.937H6.75698L5.39198 27.5H0.59498ZM8.12198 18.335H14.752L11.437 7.22L8.12198 18.335ZM24.2174 27.5V0.199998H28.8584V27.5H24.2174ZM37.2428 27.5C36.4368 27.5 35.7478 27.214 35.1758 26.642L33.2258 24.692C32.6538 24.12 32.3678 23.431 32.3678 22.625V5.075C32.3678 4.269 32.6538 3.58 33.2258 3.008L35.1758 1.058C35.7478 0.485998 36.4368 0.199998 37.2428 0.199998H46.2518C47.0578 0.199998 47.7468 0.485998 48.3188 1.058L50.2688 3.008C50.8408 3.58 51.1268 4.269 51.1268 5.075V8.546H46.4858V6.128C46.4858 5.868 46.3948 5.647 46.2128 5.465L45.8618 5.114C45.6798 4.932 45.4588 4.841 45.1988 4.841H38.2958C38.0358 4.841 37.8148 4.932 37.6328 5.114L37.2818 5.465C37.0998 5.647 37.0088 5.868 37.0088 6.128V21.572C37.0088 21.832 37.0998 22.053 37.2818 22.235L37.6328 22.586C37.8148 22.768 38.0358 22.859 38.2958 22.859H45.1988C45.4588 22.859 45.6798 22.768 45.8618 22.586L46.2128 22.235C46.3948 22.053 46.4858 21.832 46.4858 21.572V17.243H43.5608V12.602H51.1268V22.625C51.1268 23.431 50.8408 24.12 50.2688 24.692L48.3188 26.642C47.7468 27.214 47.0578 27.5 46.2518 27.5H37.2428ZM59.5231 27.5C58.7171 27.5 58.0281 27.214 57.4561 26.642L55.5061 24.692C54.9341 24.12 54.6481 23.431 54.6481 22.625V5.075C54.6481 4.269 54.9341 3.58 55.5061 3.008L57.4561 1.058C58.0281 0.485998 58.7171 0.199998 59.5231 0.199998H68.5321C69.3381 0.199998 70.0271 0.485998 70.5991 1.058L72.5491 3.008C73.1211 3.58 73.4071 4.269 73.4071 5.075V8.936H68.7661V6.128C68.7661 5.868 68.6751 5.647 68.4931 5.465L68.1421 5.114C67.9601 4.932 67.7391 4.841 67.4791 4.841H60.5761C60.3161 4.841 60.0951 4.932 59.9131 5.114L59.5621 5.465C59.3801 5.647 59.2891 5.868 59.2891 6.128V21.572C59.2891 21.832 59.3801 22.053 59.5621 22.235L59.9131 22.586C60.0951 22.768 60.3161 22.859 60.5761 22.859H67.4791C67.7391 22.859 67.9601 22.768 68.1421 22.586L68.4931 22.235C68.6751 22.053 68.7661 21.832 68.7661 21.572V18.725H73.4071V22.625C73.4071 23.431 73.1211 24.12 72.5491 24.692L70.5991 26.642C70.0271 27.214 69.3381 27.5 68.5321 27.5H59.5231ZM86.6783 27.5V0.199998H100.562C101.368 0.199998 102.057 0.485998 102.629 1.058L104.579 3.008C105.151 3.58 105.437 4.269 105.437 5.075V22.625C105.437 23.431 105.151 24.12 104.579 24.692L102.629 26.642C102.057 27.214 101.368 27.5 100.562 27.5H86.6783ZM91.3193 22.859H99.5093C99.7693 22.859 99.9903 22.768 100.172 22.586L100.523 22.235C100.705 22.053 100.796 21.832 100.796 21.572V6.128C100.796 5.868 100.705 5.647 100.523 5.465L100.172 5.114C99.9903 4.932 99.7693 4.841 99.5093 4.841H91.3193V22.859ZM107.655 27.5L115.806 0.199998H121.11L129.3 27.5H124.581L123.216 22.937H113.817L112.452 27.5H107.655ZM115.182 18.335H121.812L118.497 7.22L115.182 18.335ZM136.152 27.5C135.346 27.5 134.657 27.214 134.085 26.642L132.135 24.692C131.563 24.12 131.277 23.431 131.277 22.625V5.075C131.277 4.269 131.563 3.58 132.135 3.008L134.085 1.058C134.657 0.485998 135.346 0.199998 136.152 0.199998H145.161C145.967 0.199998 146.656 0.485998 147.228 1.058L149.178 3.008C149.75 3.58 150.036 4.269 150.036 5.075V22.625C150.036 23.431 149.75 24.12 149.178 24.692L147.228 26.642C146.656 27.214 145.967 27.5 145.161 27.5H136.152ZM137.205 22.859H144.108C144.368 22.859 144.589 22.768 144.771 22.586L145.122 22.235C145.304 22.053 145.395 21.832 145.395 21.572V6.128C145.395 5.868 145.304 5.647 145.122 5.465L144.771 5.114C144.589 4.932 144.368 4.841 144.108 4.841H137.205C136.945 4.841 136.724 4.932 136.542 5.114L136.191 5.465C136.009 5.647 135.918 5.868 135.918 6.128V21.572C135.918 21.832 136.009 22.053 136.191 22.235L136.542 22.586C136.724 22.768 136.945 22.859 137.205 22.859Z" fill="black"/>
</svg>
