<svg width="512" height="512" viewBox="0 0 512 512" fill="none" xmlns="http://www.w3.org/2000/svg">
<circle cx="256" cy="256" r="256" fill="#1D1D1B"/>
<path fill-rule="evenodd" clip-rule="evenodd" d="M353.313 132H362.628C363.344 143.703 371.369 167.109 397.736 167.109V177.14C386.033 177.379 362.628 184.591 362.628 211.532H353.313C353.791 200.068 347.581 177.14 318.921 177.14V167.109C330.385 167.347 353.313 160.66 353.313 132ZM220.042 132H289.543C288.11 184.305 307.742 288.914 397.735 288.914V379.91C352.118 378.477 260.883 353.4 260.883 264.553H250.136C246.553 303.005 214.31 379.91 114 379.91V288.914C149.347 290.108 220.042 260.397 220.042 132Z" fill="#CDF138"/>
</svg>
