<svg width="68" height="68" viewBox="0 0 68 68" fill="none" xmlns="http://www.w3.org/2000/svg">
<g clip-path="url(#clip0_84_704)">
<path d="M67.3582 33.9963C67.3582 27.3358 65.3831 20.825 61.6828 15.287C57.9824 9.74911 52.723 5.43281 46.5696 2.88398C40.4162 0.335147 33.6451 -0.331745 27.1127 0.967639C20.5802 2.26702 14.5798 5.47432 9.87017 10.1839C5.16054 14.8936 1.95325 20.894 0.653861 27.4265C-0.645525 33.9589 0.0213605 40.73 2.5702 46.8834C5.11903 53.0368 9.43533 58.2962 14.9733 61.9966C20.5112 65.6969 27.022 67.6719 33.6825 67.6719C42.6138 67.6719 51.1794 64.124 57.4948 57.8086C63.8102 51.4931 67.3582 42.9276 67.3582 33.9963ZM7.16624 33.9963C7.16386 30.4332 7.87816 26.9061 9.26662 23.6247C10.6551 20.3433 12.6893 17.3746 15.2484 14.8954L52.9113 52.6122C49.2089 56.405 44.4602 59.0083 39.2714 60.0898C34.0826 61.1713 28.6893 60.6819 23.7799 58.684C18.8706 56.6862 14.6681 53.2706 11.7089 48.8733C8.74973 44.476 7.1682 39.2965 7.16624 33.9963Z" fill="black"/>
</g>
<defs>
<clipPath id="clip0_84_704">
<rect width="68" height="68" fill="white" transform="translate(68 0) rotate(90)"/>
</clipPath>
</defs>
</svg>
