<svg width="96" height="96" viewBox="0 0 96 96" fill="none" xmlns="http://www.w3.org/2000/svg">
<path d="M55.2021 4.80005L56.3111 15.886C57.0542 23.3087 60.1369 30.3032 65.1141 35.8598C70.0914 41.4164 76.7057 45.2475 84.0021 46.8C76.7055 48.3527 70.0911 52.1839 65.1139 57.7407C60.1366 63.2975 57.054 70.2922 56.3111 77.715L55.2021 88.8L54.0941 77.715C53.3511 70.292 50.2684 63.2972 45.2909 57.7404C40.3135 52.1837 33.6989 48.3525 26.4021 46.8C33.6987 45.2477 40.3132 41.4166 45.2907 35.8601C50.2681 30.3035 53.3509 23.3089 54.0941 15.886L55.2021 4.80005Z" fill="#1D1D1B" stroke="#CDF138" stroke-linecap="round" stroke-linejoin="round"/>
<path d="M37.2021 4.80005L38.3111 15.885C39.054 23.3079 42.1366 30.3026 47.1139 35.8594C52.0911 41.4162 58.7055 45.2474 66.0021 46.8C58.7055 48.3527 52.0911 52.1839 47.1139 57.7407C42.1366 63.2975 39.054 70.2922 38.3111 77.715L37.2021 88.8L36.0941 77.715C35.3511 70.292 32.2684 63.2972 27.2909 57.7404C22.3135 52.1837 15.6989 48.3525 8.4021 46.8C15.6989 45.2476 22.3135 41.4164 27.2909 35.8597C32.2684 30.3029 35.3511 23.308 36.0941 15.885L37.2021 4.80005Z" fill="#CDF138"/>
<path d="M37.2021 4.80005L38.3111 15.885C39.054 23.3079 42.1366 30.3026 47.1139 35.8594C52.0911 41.4162 58.7055 45.2474 66.0021 46.8M37.2021 4.80005L36.0941 15.885C35.3511 23.308 32.2684 30.3029 27.2909 35.8597C22.3135 41.4164 15.6989 45.2476 8.4021 46.8C15.6989 48.3525 22.3135 52.1837 27.2909 57.7404C32.2684 63.2972 35.3511 70.292 36.0941 77.715L37.2021 88.8M37.2021 4.80005H55.2021M66.0021 46.8C58.7055 48.3527 52.0911 52.1839 47.1139 57.7407C42.1366 63.2975 39.054 70.2922 38.3111 77.715L37.2021 88.8M66.0021 46.8H84.0021M37.2021 88.8H55.2021" stroke="#CDF138" stroke-linecap="round" stroke-linejoin="round"/>
</svg>
