<svg width="96" height="96" viewBox="0 0 96 96" fill="none" xmlns="http://www.w3.org/2000/svg">
<path d="M53.3951 7.19995C35.364 7.19995 23.502 24.5699 23.502 42.5999H17.998C17.998 60.6299 35.364 72.492 53.3951 72.492V78C71.4251 78 83.291 60.6299 83.291 42.5999M53.3951 7.19995V12.709M53.3951 7.19995L41.782 18.816M83.291 42.5999H88.795M83.291 42.5999L72.755 53.11M53.3951 12.709C71.4251 12.709 88.795 24.5699 88.795 42.5999M53.3951 12.709L42.335 23.794M88.795 42.5999L77.18 53.11" stroke="#FC8AFC"/>
<path d="M42.596 88.8V83.291C24.566 83.291 7.19897 71.43 7.19897 53.4H12.704C12.704 35.37 24.565 18 42.596 18V23.509C60.626 23.509 77.996 35.37 77.996 53.4H72.493C72.493 71.43 60.626 88.8 42.596 88.8Z" fill="#FC8AFC"/>
</svg>
