<svg width="96" height="96" viewBox="0 0 96 96" fill="none" xmlns="http://www.w3.org/2000/svg">
<path d="M54.045 62.2779C59.765 68.1259 60.596 72.7239 58.627 76.0719C51.38 88.3909 6.22696 83.7919 27.277 62.2779C0.506962 89.6399 0.506962 7.55989 27.277 34.9189C5.61296 12.7799 54.073 8.55588 59.162 22.2499C60.362 25.4779 59.152 29.7009 54.045 34.9199C58.861 29.9979 62.811 28.6179 65.895 29.5059C67.804 30.0559 69.381 31.4759 70.626 33.4629C78.543 46.0999 73.016 81.6689 54.044 62.2789" fill="#F87B29"/>
<path d="M59.162 22.2501C54.072 8.5561 5.61296 12.7791 27.277 34.9201C0.506962 7.5601 0.506962 89.6401 27.277 62.2781C6.22696 83.7931 51.38 88.3901 58.627 76.0721C60.597 72.7241 59.766 68.1271 54.044 62.2791C73.015 81.6691 78.543 46.0981 70.626 33.4621M59.162 22.2501C60.362 25.4781 59.152 29.7001 54.045 34.9191C58.861 29.9971 62.811 28.6171 65.895 29.5051C67.804 30.0551 69.381 31.4751 70.626 33.4621M59.162 22.2501H73.025M70.626 33.4621L83.996 32.3421M65.895 67.7111H79.608M58.626 76.0731L73.026 75.5131" stroke="#F87B29"/>
<path d="M68.6371 62.2779C95.5171 89.6409 14.8801 89.6409 41.7601 62.2779C14.8801 89.6409 14.8801 7.55991 41.7601 34.9189C14.8801 7.55991 95.5171 7.55991 68.6371 34.9189C95.5171 7.55991 95.5171 89.6409 68.6371 62.2779Z" stroke="#F87B29"/>
</svg>
