<svg width="96" height="96" viewBox="0 0 96 96" fill="none" xmlns="http://www.w3.org/2000/svg">
<path d="M44.399 21.5999C44.399 20.6544 44.2128 19.7181 43.8509 18.8446C43.4891 17.971 42.9588 17.1773 42.2902 16.5087C41.6216 15.8402 40.8279 15.3098 39.9543 14.948C39.0808 14.5861 38.1445 14.3999 37.199 14.3999H13.199C11.2896 14.4002 9.45852 15.1589 8.10848 16.5091C6.75843 17.8593 6 19.6905 6 21.5999V45.5999C6 47.5095 6.75857 49.3408 8.10883 50.6911C9.45909 52.0413 11.2904 52.7999 13.2 52.7999H35.999C37.9086 52.7999 39.7399 53.5585 41.0902 54.9087C42.4404 56.259 43.199 58.0903 43.199 59.9999V82.7999C43.199 84.7095 43.9576 86.5408 45.3078 87.8911C46.6581 89.2413 48.4894 89.9999 50.399 89.9999H74.397C76.3066 89.9999 78.1379 89.2413 79.4882 87.8911C80.8384 86.5408 81.597 84.7095 81.597 82.7999V58.7999C81.597 56.8903 80.8384 55.059 79.4882 53.7087C78.1379 52.3585 76.3066 51.5999 74.397 51.5999H51.598C49.6884 51.5999 47.8571 50.8413 46.5068 49.4911C45.1566 48.1408 44.398 46.3095 44.398 44.3999L44.399 21.5999Z" fill="#877DFF"/>
<path d="M55.1971 72.0001C55.1971 73.9097 55.9556 75.741 57.3059 77.0913C58.6562 78.4415 60.4875 79.2001 62.3971 79.2001H86.3971C88.1682 79.2028 89.8777 78.5499 91.1961 77.3671M91.1961 77.3671C91.9522 76.6925 92.5569 75.8655 92.9706 74.9405C93.3842 74.0155 93.5974 73.0134 93.5961 72.0001V48.0001C93.5961 46.0907 92.8376 44.2595 91.4876 42.9093C90.1375 41.5591 88.3065 40.8004 86.3971 40.8001H63.5971C61.6877 40.7998 59.8566 40.0412 58.5065 38.6909C57.1565 37.3407 56.3981 35.5095 56.3981 33.6001V10.8001C56.3981 9.85459 56.2118 8.91833 55.85 8.04479C55.4882 7.17124 54.9578 6.37752 54.2892 5.70894C53.6207 5.04036 52.8269 4.51001 51.9534 4.14817C51.0798 3.78634 50.1436 3.60011 49.1981 3.60011H25.1981C23.444 3.59742 21.7498 4.23782 20.4361 5.40011M91.1961 77.3671L78.5961 87.6001M25.1981 42.0001C24.2526 42.0001 23.3163 41.8139 22.4428 41.452C21.5692 41.0902 20.7755 40.5599 20.1069 39.8913C19.4383 39.2227 18.908 38.429 18.5461 37.5554C18.1843 36.6819 17.9981 35.7456 17.9981 34.8001V10.8001C17.9981 8.65011 18.9411 6.72011 20.4361 5.40011M20.4361 5.40011L10.7991 15.6001M77.9961 56.4001L91.1961 43.2001M44.3971 51.6001L57.5961 38.4001M40.7971 19.2001L53.9971 6.00011" stroke="#877DFF"/>
</svg>
