<svg width="1280" height="481" viewBox="0 0 1280 481" fill="none" xmlns="http://www.w3.org/2000/svg">
<g clip-path="url(#clip0_191_1478)">
<path d="M1360 0H-80V481H1360V0Z" fill="#CDF138"/>
<path d="M10 0V481" stroke="black" stroke-opacity="0.05"/>
<path d="M100 0V481" stroke="black" stroke-opacity="0.05"/>
<path d="M190 0V481" stroke="black" stroke-opacity="0.05"/>
<path d="M280 0V481" stroke="black" stroke-opacity="0.05"/>
<path d="M370 0V481" stroke="black" stroke-opacity="0.05"/>
<path d="M460 0V481" stroke="black" stroke-opacity="0.05"/>
<path d="M550 0V481" stroke="black" stroke-opacity="0.05"/>
<path d="M640 0V481" stroke="black" stroke-opacity="0.05"/>
<path d="M730 0V481" stroke="black" stroke-opacity="0.05"/>
<path d="M820 0V481" stroke="black" stroke-opacity="0.05"/>
<path d="M910 0V481" stroke="black" stroke-opacity="0.05"/>
<path d="M1000 0V481" stroke="black" stroke-opacity="0.05"/>
<path d="M1090 0V481" stroke="black" stroke-opacity="0.05"/>
<path d="M1180 0V481" stroke="black" stroke-opacity="0.05"/>
<path d="M1270 0V481" stroke="black" stroke-opacity="0.05"/>
<path d="M-80 0H1360" stroke="black" stroke-opacity="0.05"/>
<path d="M-80 77.3036H1360" stroke="black" stroke-opacity="0.05"/>
<path d="M-80 154.607H1360" stroke="black" stroke-opacity="0.05"/>
<path d="M-80 231.911H1360" stroke="black" stroke-opacity="0.05"/>
<path d="M-80 309.214H1360" stroke="black" stroke-opacity="0.05"/>
<path d="M-80 386.518H1360" stroke="black" stroke-opacity="0.05"/>
<path d="M-80 463.821H1360" stroke="black" stroke-opacity="0.05"/>
</g>
<defs>
<clipPath id="clip0_191_1478">
<rect width="1280" height="481" rx="16" fill="white"/>
</clipPath>
</defs>
</svg>
