<svg width="71" height="68" viewBox="0 0 71 68" fill="none" xmlns="http://www.w3.org/2000/svg">
<g clip-path="url(#clip0_75_533)">
<g clip-path="url(#clip1_75_533)">
<g clip-path="url(#clip2_75_533)">
<path d="M70.5326 8.2499C70.5054 6.81224 70.0364 5.41777 69.1894 4.25579C68.5094 3.18909 67.5678 2.31407 66.4542 1.71396C65.3406 1.11385 64.092 0.808592 62.8271 0.82722C44.5602 0.82722 26.2934 0.82722 8.02649 0.82722C6.03358 0.832323 4.12416 1.62813 2.71751 3.03989C2.00077 3.72047 1.42951 4.53935 1.03826 5.447C0.647013 6.35465 0.443904 7.33222 0.441217 8.3206C0.49777 18.2175 0.441217 28.0579 0.441217 37.9336C0.441217 41.2915 0.335178 44.6564 0.511909 48.0072C0.556478 49.8105 1.24048 51.5393 2.44181 52.885C3.73073 54.2794 5.49739 55.1375 7.39026 55.2885C13.2577 55.0199 19.3231 55.2885 25.5723 55.2885C26.2156 55.2885 26.8518 55.3592 27.2901 55.3804L35.4692 67.2214L43.62 55.3097H45.4085C49.8763 55.3097 54.344 55.444 58.7977 55.2602C63.2018 55.3027 67.1817 54.5038 69.1894 51.5418C69.9301 50.4278 70.3842 49.1481 70.5114 47.8163C70.9072 26.9268 70.5114 11.5936 70.5326 8.2499ZM23.8757 8.65992H47.0486V24.0991H23.8898L23.8757 8.65992ZM15.9794 47.4275H8.28805V39.8635H15.9794V47.4275ZM8.30926 31.8752V24.2263H15.9511V31.8752H8.30926ZM15.9794 16.323H8.29512V8.72354H15.9794V16.323ZM47.084 47.5053C45.3166 47.5053 43.62 47.3993 41.8244 47.5053C39.5057 47.5901 38.1626 48.9828 37.3214 50.9268C37.3214 50.9268 36.6144 52.4396 36.0489 53.3728H34.9037C34.1846 51.7545 33.3408 50.1946 32.38 48.7071C31.6989 48.0306 30.7873 47.6366 29.828 47.6043C27.8839 47.4417 25.9187 47.5548 23.8686 47.5548V32.0308H47.0627L47.084 47.5053ZM55.0015 8.70233H62.6787V16.323H54.9803L55.0015 8.70233ZM62.6645 24.2546V31.9177H54.9944V24.2546H62.6645ZM62.7069 47.4275H54.9873V39.8705H62.7069V47.4275Z" fill="black"/>
</g>
</g>
</g>
<defs>
<clipPath id="clip0_75_533">
<rect width="70.26" height="67.3595" fill="white" transform="translate(0.427246 0.320312)"/>
</clipPath>
<clipPath id="clip1_75_533">
<rect width="70.26" height="67.3595" fill="white" transform="translate(0.427246 0.320312)"/>
</clipPath>
<clipPath id="clip2_75_533">
<rect width="70.2681" height="66.38" fill="white" transform="translate(0.427002 0.805908)"/>
</clipPath>
</defs>
</svg>
