<svg width="76" height="76" viewBox="0 0 76 76" fill="none" xmlns="http://www.w3.org/2000/svg">
<path d="M42.1604 43.3524C41.729 53.0048 41.3044 62.3607 40.873 71.8783L35.9254 71.6559C36.3164 62.8123 36.7073 54.0024 37.1185 44.7881L16.8632 63.3516L13.493 59.7184L36.0535 38.9711L5.33691 37.8926V32.9248L33.4854 33.9022L15.0837 13.8626L18.7236 10.4923L37.7319 31.1655C38.1498 22.0928 38.5475 13.3099 38.9519 4.47302H43.9062C43.5085 13.9098 43.0771 23.2319 42.6525 32.9113L62.6516 14.5838L66.0219 18.217L48.3752 34.4145L70.8953 35.2166V40.1978L45.2004 39.3216L63.8852 59.678L60.252 63.0482L42.1604 43.3524Z" fill="black"/>
</svg>
