<svg width="361" height="452" viewBox="0 0 361 452" fill="none" xmlns="http://www.w3.org/2000/svg">
<path d="M363 769.969L363 -318.469L-0.568359 -318.469L-0.568407 769.969L363 769.969Z" fill="#CDF138"/>
<path d="M363 21.668L-0.568368 21.668" stroke="black" stroke-opacity="0.05" stroke-width="0.755859"/>
<path d="M363 89.6953L-0.568368 89.6953" stroke="black" stroke-opacity="0.05" stroke-width="0.755859"/>
<path d="M363 157.723L-0.568368 157.723" stroke="black" stroke-opacity="0.05" stroke-width="0.755859"/>
<path d="M363 225.75L-0.568368 225.75" stroke="black" stroke-opacity="0.05" stroke-width="0.755859"/>
<path d="M363 293.777L-0.568368 293.777" stroke="black" stroke-opacity="0.05" stroke-width="0.755859"/>
<path d="M363 361.805L-0.568368 361.805" stroke="black" stroke-opacity="0.05" stroke-width="0.755859"/>
<path d="M363 429.832L-0.568368 429.832" stroke="black" stroke-opacity="0.05" stroke-width="0.755859"/>
<path d="M304.569 -318.469L304.569 769.969" stroke="black" stroke-opacity="0.05" stroke-width="0.755859"/>
<path d="M246.139 -318.469L246.139 769.969" stroke="black" stroke-opacity="0.05" stroke-width="0.755859"/>
<path d="M187.708 -318.469L187.708 769.969" stroke="black" stroke-opacity="0.05" stroke-width="0.755859"/>
<path d="M129.277 -318.469L129.277 769.969" stroke="black" stroke-opacity="0.05" stroke-width="0.755859"/>
<path d="M70.8469 -318.469L70.8469 769.969" stroke="black" stroke-opacity="0.05" stroke-width="0.755859"/>
<path d="M12.4163 -318.469L12.4162 769.969" stroke="black" stroke-opacity="0.05" stroke-width="0.755859"/>
</svg>
