<svg width="71" height="68" viewBox="0 0 71 68" fill="none" xmlns="http://www.w3.org/2000/svg">
<g clip-path="url(#clip0_191_1457)">
<g clip-path="url(#clip1_191_1457)">
<g clip-path="url(#clip2_191_1457)">
<path d="M70.5326 8.24987C70.5054 6.8122 70.0364 5.41773 69.1894 4.25576C68.5094 3.18905 67.5678 2.31404 66.4542 1.71392C65.3406 1.11381 64.092 0.808554 62.8271 0.827182C44.5602 0.827182 26.2934 0.827182 8.02649 0.827182C6.03358 0.832285 4.12416 1.62809 2.71751 3.03985C2.00077 3.72044 1.42951 4.53931 1.03826 5.44696C0.647013 6.35461 0.443904 7.33218 0.441217 8.32056C0.49777 18.2175 0.441217 28.0578 0.441217 37.9335C0.441217 41.2914 0.335178 44.6564 0.511909 48.0072C0.556478 49.8105 1.24048 51.5393 2.44181 52.8849C3.73073 54.2794 5.49739 55.1375 7.39026 55.2885C13.2577 55.0198 19.3231 55.2885 25.5723 55.2885C26.2156 55.2885 26.8518 55.3592 27.2901 55.3804L35.4692 67.2213L43.62 55.3097H45.4085C49.8763 55.3097 54.344 55.444 58.7977 55.2602C63.2018 55.3026 67.1817 54.5038 69.1894 51.5418C69.9301 50.4278 70.3842 49.148 70.5114 47.8163C70.9072 26.9268 70.5114 11.5936 70.5326 8.24987ZM23.8757 8.65988H47.0486V24.0991H23.8898L23.8757 8.65988ZM15.9794 47.4275H8.28805V39.8634H15.9794V47.4275ZM8.30926 31.8752V24.2263H15.9511V31.8752H8.30926ZM15.9794 16.3229H8.29512V8.7235H15.9794V16.3229ZM47.084 47.5053C45.3166 47.5053 43.62 47.3992 41.8244 47.5053C39.5057 47.5901 38.1626 48.9827 37.3214 50.9268C37.3214 50.9268 36.6144 52.4396 36.0489 53.3727H34.9037C34.1846 51.7544 33.3408 50.1945 32.38 48.707C31.6989 48.0306 30.7873 47.6366 29.828 47.6042C27.8839 47.4416 25.9187 47.5547 23.8686 47.5547V32.0307H47.0627L47.084 47.5053ZM55.0015 8.7023H62.6787V16.3229H54.9803L55.0015 8.7023ZM62.6645 24.2546V31.9176H54.9944V24.2546H62.6645ZM62.7069 47.4275H54.9873V39.8705H62.7069V47.4275Z" fill="black"/>
</g>
</g>
</g>
<defs>
<clipPath id="clip0_191_1457">
<rect width="70.26" height="67.3595" fill="white" transform="translate(0.427246 0.320259)"/>
</clipPath>
<clipPath id="clip1_191_1457">
<rect width="70.26" height="67.3595" fill="white" transform="translate(0.427246 0.320259)"/>
</clipPath>
<clipPath id="clip2_191_1457">
<rect width="70.2681" height="66.38" fill="white" transform="translate(0.427002 0.805946)"/>
</clipPath>
</defs>
</svg>
