<svg width="67" height="63" viewBox="0 0 67 63" fill="none" xmlns="http://www.w3.org/2000/svg">
<g clip-path="url(#clip0_94_845)">
<g clip-path="url(#clip1_94_845)">
<g clip-path="url(#clip2_94_845)">
<path d="M7.38193 36.7741H1.5V8.46593H7.44194H8.94194V6.96593V1.67749H20.6124V7.05262V8.55262H22.1124H28.0944V17.382V18.882H29.5944H36.9897H38.4897V17.382V8.55262H44.4383H45.9383V7.05262V1.67749H57.6088V6.96593V8.46593H59.1088H65.0507V36.7741H59.1288H57.6288V38.2741V43.6026H51.7935H50.2935V45.1026V50.5444H40.7173H39.2173V52.0444V60.8537H27.3334V51.9377V50.4377H25.8334H16.2572V45.0626V43.5626H14.7572H8.88193V38.2741V36.7741H7.38193Z" fill="#877DFF" stroke="black" stroke-width="3"/>
</g>
</g>
</g>
<defs>
<clipPath id="clip0_94_845">
<rect width="66.5574" height="62.1742" fill="white" transform="translate(0 0.174316)"/>
</clipPath>
<clipPath id="clip1_94_845">
<rect width="66.5574" height="62.1742" fill="white" transform="translate(0 0.174316)"/>
</clipPath>
<clipPath id="clip2_94_845">
<rect width="66.5574" height="62.1762" fill="white" transform="translate(0 0.17749)"/>
</clipPath>
</defs>
</svg>
