<svg width="208" height="208" viewBox="0 0 208 208" fill="none" xmlns="http://www.w3.org/2000/svg">
<path d="M206.019 104C206.019 47.1094 159.9 0.990479 103.01 0.990479C46.1189 0.990479 0 47.1094 0 104C0 160.891 46.1189 207.01 103.01 207.01C159.9 207.01 206.019 160.891 206.019 104Z" fill="#877DFF"/>
<path fill-rule="evenodd" clip-rule="evenodd" d="M138.063 60.0898H141.366C141.62 64.2397 144.465 72.5395 153.815 72.5395V76.0966C149.666 76.1813 141.366 78.739 141.366 88.2922H138.063C138.232 84.227 136.03 76.0966 125.867 76.0966V72.5395C129.932 72.6242 138.063 70.2529 138.063 60.0898ZM90.8044 60.0899H115.45C114.942 78.6374 121.903 115.732 153.815 115.732V148C137.639 147.492 105.287 138.599 105.287 107.094H101.476C100.205 120.729 88.7718 148 53.2012 148V115.732C65.7356 116.156 90.8044 105.62 90.8044 60.0899Z" fill="black"/>
</svg>
