<svg width="20" height="20" viewBox="0 0 20 20" fill="none" xmlns="http://www.w3.org/2000/svg">
<path d="M16.0862 4.44755C14.9453 3.92578 13.7337 3.5455 12.4691 3.33325C12.3099 3.60741 12.133 3.97884 12.0092 4.27069C10.6641 4.07612 9.32867 4.07612 8.00212 4.27069C7.87831 3.97884 7.69258 3.60741 7.54223 3.33325C6.26876 3.5455 5.05717 3.92578 3.92429 4.44755C1.63377 7.82584 1.01472 11.1245 1.32425 14.379C2.84536 15.4845 4.31343 16.1566 5.75584 16.5988C6.10959 16.1213 6.42797 15.6083 6.70212 15.0688C6.18034 14.8743 5.68509 14.6355 5.20753 14.3525C5.33135 14.2641 5.45517 14.1668 5.57013 14.0695C8.45317 15.3873 11.5759 15.3873 14.4235 14.0695C14.5473 14.1668 14.6623 14.2641 14.7862 14.3525C14.3086 14.6355 13.8133 14.8743 13.2916 15.0688C13.5657 15.6083 13.8841 16.1213 14.2378 16.5988C15.6793 16.1566 17.1562 15.4845 18.6694 14.379C19.0497 10.6117 18.0672 7.33948 16.0862 4.44755ZM7.10008 12.3715C6.23339 12.3715 5.52589 11.5844 5.52589 10.6205C5.52589 9.6565 6.2157 8.86942 7.10008 8.86942C7.97559 8.86942 8.69192 9.6565 8.67425 10.6205C8.67425 11.5844 7.97559 12.3715 7.10008 12.3715ZM12.9113 12.3715C12.0446 12.3715 11.3362 11.5844 11.3362 10.6205C11.3362 9.6565 12.0269 8.86942 12.9113 8.86942C13.7868 8.86942 14.5032 9.6565 14.4854 10.6205C14.4854 11.5844 13.7957 12.3715 12.9113 12.3715Z" fill="black"/>
</svg>
