<svg width="68" height="68" viewBox="0 0 68 68" fill="none" xmlns="http://www.w3.org/2000/svg">
<path d="M34.1041 0.32685C27.4513 0.308425 20.9421 2.26103 15.398 5.93825C9.85388 9.61547 5.52324 14.8525 2.95259 20.9885C0.381934 27.1245 -0.313527 33.8844 0.953965 40.4153C2.22146 46.9461 5.3951 52.9552 10.0744 57.6842C14.7537 62.4131 20.729 65.6501 27.2461 66.9866C33.7633 68.323 40.5303 67.6991 46.6932 65.1935C52.8562 62.6879 58.1388 58.4129 61.8745 52.9081C65.6102 47.4032 67.6315 40.9151 67.6834 34.2626C67.718 29.8265 66.8757 25.4272 65.2049 21.3176C63.534 17.208 61.0676 13.469 57.9472 10.3156C54.8269 7.1621 51.1141 4.65629 47.0224 2.9421C42.9306 1.22791 38.5404 0.339137 34.1041 0.32685ZM34.0435 62.7299C28.3606 62.7419 22.8018 61.0683 18.0702 57.9208C13.3385 54.7733 9.64666 50.2933 7.46146 45.0474C5.27626 39.8015 4.6959 34.0254 5.7938 28.4496C6.89169 22.8739 9.61852 17.749 13.6294 13.7231C17.6403 9.69719 22.755 6.95119 28.3267 5.8324C33.8983 4.71361 39.6767 5.27229 44.9308 7.43777C50.1849 9.60324 54.6788 13.2782 57.8441 17.998C61.0094 22.7177 62.7038 28.2701 62.7132 33.9529C62.7265 37.7266 61.9948 41.4658 60.56 44.9562C59.1253 48.4465 57.0157 51.6194 54.3522 54.2928C51.6888 56.9663 48.5238 59.0877 45.0388 60.5355C41.5538 61.9834 37.8172 62.7291 34.0435 62.7299Z" fill="black"/>
<path d="M52.2619 34.8014C53.0364 44.4457 46.9683 48.5069 43.7827 50.3455C40.7655 52.1033 37.4856 52.9451 33.2359 52.9788C20.2242 51.7396 15.6984 41.0783 15.7859 34.8688" stroke="black" stroke-width="3.36743" stroke-miterlimit="10" stroke-linecap="round"/>
<path d="M20.6416 27.2588C19.6987 27.5956 19.0454 27.4002 19.0454 26.1812C19.0656 24.1136 20.7561 22.4501 22.8237 22.4569C24.8576 22.4636 26.5076 24.1069 26.5278 26.1408C26.5682 28.0064 25.1135 26.0398 23.2951 26.1745C22.3253 26.3092 21.3824 26.9288 20.6416 27.2588Z" fill="black"/>
<path d="M45.2369 26.3765C43.1559 26.3765 41.4654 28.2017 41.5058 26.1273C41.5328 24.0934 43.1828 22.4568 45.2235 22.4568C47.2911 22.4568 48.9748 24.1204 48.995 26.188C48.9883 28.2354 47.3045 26.3833 45.2369 26.3765Z" fill="black"/>
</svg>
