<svg width="40" height="36" viewBox="0 0 40 36" fill="none" xmlns="http://www.w3.org/2000/svg">
<path fill-rule="evenodd" clip-rule="evenodd" d="M32.9076 0.955078H34.1885C34.287 2.56433 35.3905 5.78283 39.0162 5.78283V7.16219C37.407 7.19503 34.1885 8.18685 34.1885 11.8914H32.9076C32.9733 10.315 32.1194 7.16219 28.1784 7.16219V5.78283C29.7548 5.81567 32.9076 4.8961 32.9076 0.955078ZM14.5818 0.955085H24.1388C23.9417 8.14745 26.6413 22.5322 39.0161 22.5322V35.0449C32.7433 34.8479 20.1977 31.3995 20.1977 19.1823H18.7199C18.2272 24.4698 13.7936 35.0449 0 35.0449V22.5322C4.86059 22.6964 14.5818 18.6109 14.5818 0.955085Z" fill="black"/>
</svg>
