<svg width="67" height="63" viewBox="0 0 67 63" fill="none" xmlns="http://www.w3.org/2000/svg">
<g clip-path="url(#clip0_94_833)">
<g clip-path="url(#clip1_94_833)">
<g clip-path="url(#clip2_94_833)">
<path d="M7.38193 36.5998H1.5V8.29161H7.44194H8.94194V6.79162V1.50317H20.6124V6.8783V8.3783H22.1124H28.0944V17.2077V18.7077H29.5944H36.9897H38.4897V17.2077V8.3783H44.4383H45.9383V6.8783V1.50317H57.6088V6.79162V8.29161H59.1088H65.0507V36.5998H59.1288H57.6288V38.0998V43.4283H51.7935H50.2935V44.9283V50.3701H40.7173H39.2173V51.8701V60.6794H27.3334V51.7634V50.2634H25.8334H16.2572V44.8882V43.3882H14.7572H8.88193V38.0998V36.5998H7.38193Z" stroke="black" stroke-width="3"/>
</g>
</g>
</g>
<defs>
<clipPath id="clip0_94_833">
<rect width="66.5574" height="62.1742" fill="white"/>
</clipPath>
<clipPath id="clip1_94_833">
<rect width="66.5574" height="62.1742" fill="white"/>
</clipPath>
<clipPath id="clip2_94_833">
<rect width="66.5574" height="62.1762" fill="white" transform="translate(0 0.00317383)"/>
</clipPath>
</defs>
</svg>
